<?xml version="1.0" encoding="utf-8" standalone="no"?>
<!DOCTYPE svg PUBLIC "-//W3C//DTD SVG 1.1//EN"
  "http://www.w3.org/Graphics/SVG/1.1/DTD/svg11.dtd">
<svg xmlns:xlink="http://www.w3.org/1999/xlink" width="482.247366pt" height="244.476pt" viewBox="0 0 482.247366 244.476" xmlns="http://www.w3.org/2000/svg" version="1.1">
 <metadata>
  <rdf:RDF xmlns:dc="http://purl.org/dc/elements/1.1/" xmlns:cc="http://creativecommons.org/ns#" xmlns:rdf="http://www.w3.org/1999/02/22-rdf-syntax-ns#">
   <cc:Work>
    <dc:type rdf:resource="http://purl.org/dc/dcmitype/StillImage"/>
    <dc:date>2026-06-21T15:23:52.457519</dc:date>
    <dc:format>image/svg+xml</dc:format>
    <dc:creator>
     <cc:Agent>
      <dc:title>Matplotlib v3.10.9, https://matplotlib.org/</dc:title>
     </cc:Agent>
    </dc:creator>
   </cc:Work>
  </rdf:RDF>
 </metadata>
 <defs>
  <style type="text/css">*{stroke-linejoin: round; stroke-linecap: butt}</style>
 </defs>
 <g id="figure_1">
  <g id="patch_1">
   <path d="M 0 244.476 
L 482.247366 244.476 
L 482.247366 0 
L 0 0 
z
" style="fill: #ffffff"/>
  </g>
  <g id="axes_1">
   <g id="patch_2">
    <path d="M 24.47568 111.88458 
L 112.46112 111.88458 
Q 119.6928 111.88458 119.6928 107.743212 
L 119.6928 48.153528 
Q 119.6928 44.01216 112.46112 44.01216 
L 24.47568 44.01216 
Q 17.244 44.01216 17.244 48.153528 
L 17.244 107.743212 
Q 17.244 111.88458 24.47568 111.88458 
z
" clip-path="url(#p4a03072dae)" style="fill: #f6f8fb; stroke: #566173; stroke-linejoin: miter"/>
   </g>
   <g id="patch_3">
    <path d="M 29.2968 92.788272 
L 100.81008 92.788272 
Q 104.82768 92.788272 104.82768 90.487512 
L 104.82768 82.895004 
Q 104.82768 80.594244 100.81008 80.594244 
L 29.2968 80.594244 
Q 25.2792 80.594244 25.2792 82.895004 
L 25.2792 90.487512 
Q 25.2792 92.788272 29.2968 92.788272 
z
" clip-path="url(#p4a03072dae)" style="fill: #e8f1ff; stroke: #3b6ea5; stroke-linejoin: miter"/>
   </g>
   <g id="patch_4">
    <path d="M 29.2968 103.141692 
L 100.81008 103.141692 
Q 104.82768 103.141692 104.82768 100.840932 
L 104.82768 93.248424 
Q 104.82768 90.947664 100.81008 90.947664 
L 29.2968 90.947664 
Q 25.2792 90.947664 25.2792 93.248424 
L 25.2792 100.840932 
Q 25.2792 103.141692 29.2968 103.141692 
z
" clip-path="url(#p4a03072dae)" style="fill: #fff0e8; stroke: #d26b4f; stroke-linejoin: miter"/>
   </g>
   <g id="patch_5">
    <path d="M 145.00368 92.32812 
L 265.12992 92.32812 
Q 272.3616 92.32812 272.3616 88.186752 
L 272.3616 56.206188 
Q 272.3616 52.06482 265.12992 52.06482 
L 145.00368 52.06482 
Q 137.772 52.06482 137.772 56.206188 
L 137.772 88.186752 
Q 137.772 92.32812 145.00368 92.32812 
z
" clip-path="url(#p4a03072dae)" style="fill: #e8f5fc; stroke: #2f7fb0; stroke-width: 1.15; stroke-linejoin: miter"/>
   </g>
   <g id="patch_6">
    <path d="M 145.00368 138.34332 
L 265.12992 138.34332 
Q 272.3616 138.34332 272.3616 134.201952 
L 272.3616 102.221388 
Q 272.3616 98.08002 265.12992 98.08002 
L 145.00368 98.08002 
Q 137.772 98.08002 137.772 102.221388 
L 137.772 134.201952 
Q 137.772 138.34332 145.00368 138.34332 
z
" clip-path="url(#p4a03072dae)" style="fill: #e9f8ef; stroke: #3f9d6d; stroke-width: 1.15; stroke-linejoin: miter"/>
   </g>
   <g id="patch_7">
    <path d="M 145.00368 184.35852 
L 265.12992 184.35852 
Q 272.3616 184.35852 272.3616 180.217152 
L 272.3616 148.236588 
Q 272.3616 144.09522 265.12992 144.09522 
L 145.00368 144.09522 
Q 137.772 144.09522 137.772 148.236588 
L 137.772 180.217152 
Q 137.772 184.35852 145.00368 184.35852 
z
" clip-path="url(#p4a03072dae)" style="fill: #fff6d8; stroke: #cd8b2a; stroke-width: 1.15; stroke-linejoin: miter"/>
   </g>
   <g id="patch_8">
    <path d="M 305.70768 130.29066 
L 389.67552 130.29066 
Q 396.9072 130.29066 396.9072 126.149292 
L 396.9072 60.807708 
Q 396.9072 56.66634 389.67552 56.66634 
L 305.70768 56.66634 
Q 298.476 56.66634 298.476 60.807708 
L 298.476 126.149292 
Q 298.476 130.29066 305.70768 130.29066 
z
" clip-path="url(#p4a03072dae)" style="fill: #f9fafb; stroke: #566173; stroke-linejoin: miter"/>
   </g>
   <g id="patch_9">
    <path d="M 310.5288 89.107056 
L 380.8368 89.107056 
Q 384.8544 89.107056 384.8544 86.806296 
L 384.8544 74.842344 
Q 384.8544 72.541584 380.8368 72.541584 
L 310.5288 72.541584 
Q 306.5112 72.541584 306.5112 74.842344 
L 306.5112 86.806296 
Q 306.5112 89.107056 310.5288 89.107056 
z
" clip-path="url(#p4a03072dae)" style="fill: #e8f1ff; stroke: #3b6ea5; stroke-width: 0.9; stroke-linejoin: miter"/>
   </g>
   <g id="patch_10">
    <path d="M 310.5288 105.212376 
L 380.8368 105.212376 
Q 384.8544 105.212376 384.8544 102.911616 
L 384.8544 90.947664 
Q 384.8544 88.646904 380.8368 88.646904 
L 310.5288 88.646904 
Q 306.5112 88.646904 306.5112 90.947664 
L 306.5112 102.911616 
Q 306.5112 105.212376 310.5288 105.212376 
z
" clip-path="url(#p4a03072dae)" style="fill: #fff0e8; stroke: #d26b4f; stroke-width: 0.9; stroke-linejoin: miter"/>
   </g>
   <g id="patch_11">
    <path d="M 310.5288 121.317696 
L 380.8368 121.317696 
Q 384.8544 121.317696 384.8544 119.016936 
L 384.8544 107.052984 
Q 384.8544 104.752224 380.8368 104.752224 
L 310.5288 104.752224 
Q 306.5112 104.752224 306.5112 107.052984 
L 306.5112 119.016936 
Q 306.5112 121.317696 310.5288 121.317696 
z
" clip-path="url(#p4a03072dae)" style="fill: #fff6d8; stroke: #cd8b2a; stroke-width: 0.9; stroke-linejoin: miter"/>
   </g>
   <g id="patch_12">
    <path d="M 37.73376 217.71954 
L 378.42624 217.71954 
Q 384.8544 217.71954 384.8544 214.038324 
L 384.8544 199.543536 
Q 384.8544 195.86232 378.42624 195.86232 
L 37.73376 195.86232 
Q 31.3056 195.86232 31.3056 199.543536 
L 31.3056 214.038324 
Q 31.3056 217.71954 37.73376 217.71954 
z
" clip-path="url(#p4a03072dae)" style="fill: #f6f8fb; stroke: #c7ced9; stroke-width: 0.9; stroke-linejoin: miter"/>
   </g>
   <g id="text_1">
    <text style="font-weight: 700; font-size: 11px; font-family: 'DejaVu Sans'; text-anchor: start; fill: #242a33" x="21.2616" y="23.610941" transform="rotate(-0 21.2616 23.610941)">Decision-aware evaluation object</text>
   </g>
   <g id="text_2">
    <text style="font-size: 6.7px; font-family: 'DejaVu Sans'; text-anchor: start; fill: #4b5563" x="21.2616" y="31.847413" transform="rotate(-0 21.2616 31.847413)">The same verified confusion tables support different choices only after the estimand, event composition and user cost ratio are stated.</text>
   </g>
   <g id="text_3">
    <text style="font-weight: 700; font-size: 8px; font-family: 'DejaVu Sans'; text-anchor: start; fill: #242a33" x="28.09152" y="56.57308" transform="rotate(-0 28.09152 56.57308)">Evidence table</text>
   </g>
   <g id="text_4">
    <text style="font-size: 6px; font-family: 'DejaVu Sans'; text-anchor: start; fill: #4b5563" x="28.09152" y="62.878392" transform="rotate(-0 28.09152 62.878392)">Kuro verified local support</text>
   </g>
   <g id="text_5">
    <text style="font-weight: 700; font-size: 6.6px; font-family: 'DejaVu Sans'; text-anchor: start; fill: #242a33" x="28.09152" y="70.700976" transform="rotate(-0 28.09152 70.700976)">43,236 grids</text>
   </g>
   <g id="text_6">
    <text style="font-weight: 700; font-size: 6px; font-family: 'DejaVu Sans'; text-anchor: start; fill: #4b5563" x="28.09152" y="77.37318" transform="rotate(-0 28.09152 77.37318)">14 event-AOI units</text>
   </g>
   <g id="text_7">
    <text style="font-weight: 700; font-size: 6.8px; font-family: 'DejaVu Sans'; text-anchor: start; fill: #3b6ea5" x="36.52848" y="88.452595" transform="rotate(-0 36.52848 88.452595)">U-Net</text>
   </g>
   <g id="text_8">
    <text style="font-size: 5.5px; font-family: 'DejaVu Sans'; text-anchor: start; fill: #4b5563" x="60.23232" y="88.093876" transform="rotate(-0 60.23232 88.093876)">FP-restrained</text>
   </g>
   <g id="text_9">
    <text style="font-weight: 700; font-size: 6.8px; font-family: 'DejaVu Sans'; text-anchor: start; fill: #d26b4f" x="36.52848" y="98.806015" transform="rotate(-0 36.52848 98.806015)">ASPP</text>
   </g>
   <g id="text_10">
    <text style="font-size: 5.5px; font-family: 'DejaVu Sans'; text-anchor: start; fill: #4b5563" x="60.23232" y="98.447296" transform="rotate(-0 60.23232 98.447296)">recall-heavy</text>
   </g>
   <g id="text_11">
    <text style="font-weight: 700; font-size: 7.2px; font-family: 'DejaVu Sans'; text-anchor: start; fill: #2f7fb0" x="148.61952" y="63.226485" transform="rotate(-0 148.61952 63.226485)">1  Aggregation estimand</text>
   </g>
   <g id="text_12">
    <text style="font-size: 6.2px; font-family: 'DejaVu Sans'; text-anchor: start; fill: #4b5563" x="148.61952" y="72.181712" transform="rotate(-0 148.61952 72.181712)">Pooled pixels weight units by mass.</text>
   </g>
   <g id="text_13">
    <text style="font-weight: 700; font-size: 6.5px; font-family: 'DejaVu Sans'; text-anchor: start; fill: #242a33" x="148.61952" y="84.918674" transform="rotate(-0 148.61952 84.918674)">F1: U-Net 0.5815 &gt; ASPP 0.4572</text>
   </g>
   <g id="patch_13">
    <path d="M 119.68103 72.19647 
Q 125.716155 72.19647 130.353739 72.19647 
" style="fill: none; stroke: #566173; stroke-width: 1.25; stroke-linecap: round"/>
    <path d="M 127.153739 70.59647 
L 130.353739 72.19647 
L 127.153739 73.79647 
z
" style="fill: #566173; stroke: #566173; stroke-width: 1.25; stroke-linecap: round"/>
   </g>
   <g id="text_14">
    <text style="font-weight: 700; font-size: 7.2px; font-family: 'DejaVu Sans'; text-anchor: start; fill: #3f9d6d" x="148.61952" y="109.26981" transform="rotate(-0 148.61952 109.26981)">2  Event composition</text>
   </g>
   <g id="text_15">
    <text style="font-size: 6.2px; font-family: 'DejaVu Sans'; text-anchor: start; fill: #4b5563" x="148.61952" y="118.196913" transform="rotate(-0 148.61952 118.196913)">One event can dominate the pooled table.</text>
   </g>
   <g id="text_16">
    <text style="font-weight: 700; font-size: 6.5px; font-family: 'DejaVu Sans'; text-anchor: start; fill: #242a33" x="148.61952" y="130.933874" transform="rotate(-0 148.61952 130.933874)">58.8% flood pixels; exclusion flips</text>
   </g>
   <g id="patch_14">
    <path d="M 119.68103 118.21167 
Q 125.716155 118.21167 130.353739 118.21167 
" style="fill: none; stroke: #566173; stroke-width: 1.25; stroke-linecap: round"/>
    <path d="M 127.153739 116.61167 
L 130.353739 118.21167 
L 127.153739 119.81167 
z
" style="fill: #566173; stroke: #566173; stroke-width: 1.25; stroke-linecap: round"/>
   </g>
   <g id="text_17">
    <text style="font-weight: 700; font-size: 7.2px; font-family: 'DejaVu Sans'; text-anchor: start; fill: #cd8b2a" x="148.61952" y="155.28501" transform="rotate(-0 148.61952 155.28501)">3  User cost ratio</text>
   </g>
   <g id="text_18">
    <text style="font-size: 6.2px; font-family: 'DejaVu Sans'; text-anchor: start; fill: #4b5563" x="148.61952" y="164.212112" transform="rotate(-0 148.61952 164.212112)">Common denominator for FP/FN rates.</text>
   </g>
   <g id="text_19">
    <!-- $\lambda^{*}=c_{FP}/c_{FN}$ is the switch point -->
    <g style="fill: #242a33" transform="translate(148.61952 177.43048)">
     <text>
      <tspan x="0" y="-0.678125" style="font-style: oblique; font-size: 6.5px; font-family: 'DejaVu Sans'; fill: #242a33">λ</tspan>
      <tspan x="14.812533" y="-0.678125" style="font-style: oblique; font-size: 6.5px; font-family: 'DejaVu Sans'; fill: #242a33">c</tspan>
      <tspan x="26.128524" y="-0.678125" style="font-style: oblique; font-size: 6.5px; font-family: 'DejaVu Sans'; fill: #242a33">c</tspan>
      <tspan x="4.367122" y="-3.357812" style="font-size: 4.55px; font-family: 'DejaVu Sans'; fill: #242a33">*</tspan>
      <tspan x="8.099886" y="-0.678125" style="font-size: 6.5px; font-family: 'DejaVu Sans'; fill: #242a33">=</tspan>
      <tspan x="23.938582" y="-0.678125" style="font-size: 6.5px; font-family: 'DejaVu Sans'; fill: #242a33">/</tspan>
      <tspan x="18.386263" y="0.470313" style="font-style: oblique; font-size: 4.55px; font-family: 'DejaVu Sans'; fill: #242a33">F</tspan>
      <tspan x="21.003402" y="0.470313" style="font-style: oblique; font-size: 4.55px; font-family: 'DejaVu Sans'; fill: #242a33">P</tspan>
      <tspan x="29.702254" y="0.470313" style="font-style: oblique; font-size: 4.55px; font-family: 'DejaVu Sans'; fill: #242a33">F</tspan>
      <tspan x="32.319393" y="0.470313" style="font-style: oblique; font-size: 4.55px; font-family: 'DejaVu Sans'; fill: #242a33">N</tspan>
      <tspan x="35.914412" y="-0.678125" style="font-weight: 700; font-size: 6.5px; font-family: 'DejaVu Sans'; fill: #242a33"> </tspan>
      <tspan x="38.177352" y="-0.678125" style="font-weight: 700; font-size: 6.5px; font-family: 'DejaVu Sans'; fill: #242a33">i</tspan>
      <tspan x="40.405379" y="-0.678125" style="font-weight: 700; font-size: 6.5px; font-family: 'DejaVu Sans'; fill: #242a33">s</tspan>
      <tspan x="44.274276" y="-0.678125" style="font-weight: 700; font-size: 6.5px; font-family: 'DejaVu Sans'; fill: #242a33"> </tspan>
      <tspan x="46.537215" y="-0.678125" style="font-weight: 700; font-size: 6.5px; font-family: 'DejaVu Sans'; fill: #242a33">t</tspan>
      <tspan x="49.644393" y="-0.678125" style="font-weight: 700; font-size: 6.5px; font-family: 'DejaVu Sans'; fill: #242a33">h</tspan>
      <tspan x="54.271834" y="-0.678125" style="font-weight: 700; font-size: 6.5px; font-family: 'DejaVu Sans'; fill: #242a33">e</tspan>
      <tspan x="58.680282" y="-0.678125" style="font-weight: 700; font-size: 6.5px; font-family: 'DejaVu Sans'; fill: #242a33"> </tspan>
      <tspan x="60.943221" y="-0.678125" style="font-weight: 700; font-size: 6.5px; font-family: 'DejaVu Sans'; fill: #242a33">s</tspan>
      <tspan x="64.812118" y="-0.678125" style="font-weight: 700; font-size: 6.5px; font-family: 'DejaVu Sans'; fill: #242a33">w</tspan>
      <tspan x="70.817" y="-0.678125" style="font-weight: 700; font-size: 6.5px; font-family: 'DejaVu Sans'; fill: #242a33">i</tspan>
      <tspan x="73.045028" y="-0.678125" style="font-weight: 700; font-size: 6.5px; font-family: 'DejaVu Sans'; fill: #242a33">t</tspan>
      <tspan x="76.152205" y="-0.678125" style="font-weight: 700; font-size: 6.5px; font-family: 'DejaVu Sans'; fill: #242a33">c</tspan>
      <tspan x="80.005233" y="-0.678125" style="font-weight: 700; font-size: 6.5px; font-family: 'DejaVu Sans'; fill: #242a33">h</tspan>
      <tspan x="84.632674" y="-0.678125" style="font-weight: 700; font-size: 6.5px; font-family: 'DejaVu Sans'; fill: #242a33"> </tspan>
      <tspan x="86.895614" y="-0.678125" style="font-weight: 700; font-size: 6.5px; font-family: 'DejaVu Sans'; fill: #242a33">p</tspan>
      <tspan x="91.548446" y="-0.678125" style="font-weight: 700; font-size: 6.5px; font-family: 'DejaVu Sans'; fill: #242a33">o</tspan>
      <tspan x="96.014022" y="-0.678125" style="font-weight: 700; font-size: 6.5px; font-family: 'DejaVu Sans'; fill: #242a33">i</tspan>
      <tspan x="98.242049" y="-0.678125" style="font-weight: 700; font-size: 6.5px; font-family: 'DejaVu Sans'; fill: #242a33">n</tspan>
      <tspan x="102.869491" y="-0.678125" style="font-weight: 700; font-size: 6.5px; font-family: 'DejaVu Sans'; fill: #242a33">t</tspan>
     </text>
    </g>
   </g>
   <g id="patch_15">
    <path d="M 119.68103 164.22687 
Q 125.716155 164.22687 130.353739 164.22687 
" style="fill: none; stroke: #566173; stroke-width: 1.25; stroke-linecap: round"/>
    <path d="M 127.153739 162.62687 
L 130.353739 164.22687 
L 127.153739 165.82687 
z
" style="fill: #566173; stroke: #566173; stroke-width: 1.25; stroke-linecap: round"/>
   </g>
   <g id="text_20">
    <text style="font-weight: 700; font-size: 8.2px; font-family: 'DejaVu Sans'; text-anchor: start; fill: #242a33" x="310.5288" y="68.822295" transform="rotate(-0 310.5288 68.822295)">Decision record</text>
   </g>
   <g id="text_21">
    <text style="font-size: 5.4px; font-family: 'DejaVu Sans'; text-anchor: middle; fill: #4b5563" x="345.48192" y="80.013622" transform="rotate(-0 345.48192 80.013622)">Pooled-pixel objective</text>
   </g>
   <g id="text_22">
    <text style="font-weight: 700; font-size: 5.7px; font-family: 'DejaVu Sans'; text-anchor: middle; fill: #3b6ea5" x="345.48192" y="84.928" transform="rotate(-0 345.48192 84.928)">select U-Net</text>
   </g>
   <g id="text_23">
    <text style="font-size: 5.4px; font-family: 'DejaVu Sans'; text-anchor: middle; fill: #4b5563" x="345.48192" y="96.118943" transform="rotate(-0 345.48192 96.118943)">Event reliability</text>
   </g>
   <g id="text_24">
    <text style="font-weight: 700; font-size: 5.7px; font-family: 'DejaVu Sans'; text-anchor: middle; fill: #d26b4f" x="345.48192" y="101.03332" transform="rotate(-0 345.48192 101.03332)">select ASPP</text>
   </g>
   <g id="text_25">
    <text style="font-size: 5.4px; font-family: 'DejaVu Sans'; text-anchor: middle; fill: #4b5563" x="345.48192" y="112.224262" transform="rotate(-0 345.48192 112.224262)">Cost threshold</text>
   </g>
   <g id="text_26">
    <text style="font-weight: 700; font-size: 5.7px; font-family: 'DejaVu Sans'; text-anchor: middle; fill: #cd8b2a" x="345.48192" y="117.13864" transform="rotate(-0 345.48192 117.13864)">state-dependent</text>
   </g>
   <g id="patch_16">
    <path d="M 275.080493 72.759934 
Q 287.828324 76.51009 299.342682 79.897383 
" style="fill: none; stroke: #2f7fb0; stroke-width: 1.15; stroke-linecap: round"/>
    <path d="M 296.724318 77.459316 
L 299.342682 79.897383 
L 295.82121 80.529234 
z
" style="fill: #2f7fb0; stroke: #2f7fb0; stroke-width: 1.15; stroke-linecap: round"/>
   </g>
   <g id="patch_17">
    <path d="M 274.786922 117.034819 
Q 287.830233 107.570022 299.832915 98.86035 
" style="fill: none; stroke: #3f9d6d; stroke-width: 1.15; stroke-linecap: round"/>
    <path d="M 296.303259 99.444758 
L 299.832915 98.86035 
L 298.182648 102.034719 
z
" style="fill: #3f9d6d; stroke: #3f9d6d; stroke-width: 1.15; stroke-linecap: round"/>
   </g>
   <g id="patch_18">
    <path d="M 274.158608 162.492769 
Q 287.828893 138.631731 300.860025 115.886313 
" style="fill: none; stroke: #cd8b2a; stroke-width: 1.15; stroke-linecap: round"/>
    <path d="M 297.880974 117.86754 
L 300.860025 115.886313 
L 300.657576 119.458289 
z
" style="fill: #cd8b2a; stroke: #cd8b2a; stroke-width: 1.15; stroke-linecap: round"/>
   </g>
   <g id="text_27">
    <text style="font-weight: 700; font-size: 6.4px; font-family: 'DejaVu Sans'; text-anchor: middle; fill: #242a33" x="208.08" y="208.646968" transform="rotate(-0 208.08 208.646968)">Output: a conditional decision record, not a model-name ranking</text>
   </g>
  </g>
 </g>
 <defs>
  <clipPath id="p4a03072dae">
   <rect x="7.2" y="7.2" width="401.76" height="230.076"/>
  </clipPath>
 </defs>
</svg>
