<?xml version="1.0" encoding="utf-8" standalone="no"?>
<!DOCTYPE svg PUBLIC "-//W3C//DTD SVG 1.1//EN"
  "http://www.w3.org/Graphics/SVG/1.1/DTD/svg11.dtd">
<svg xmlns:xlink="http://www.w3.org/1999/xlink" width="416.16pt" height="208.44pt" viewBox="0 0 416.16 208.44" xmlns="http://www.w3.org/2000/svg" version="1.1">
 <metadata>
  <rdf:RDF xmlns:dc="http://purl.org/dc/elements/1.1/" xmlns:cc="http://creativecommons.org/ns#" xmlns:rdf="http://www.w3.org/1999/02/22-rdf-syntax-ns#">
   <cc:Work>
    <dc:type rdf:resource="http://purl.org/dc/dcmitype/StillImage"/>
    <dc:date>2026-06-21T10:05:51.038491</dc:date>
    <dc:format>image/svg+xml</dc:format>
    <dc:creator>
     <cc:Agent>
      <dc:title>Matplotlib v3.10.9, https://matplotlib.org/</dc:title>
     </cc:Agent>
    </dc:creator>
   </cc:Work>
  </rdf:RDF>
 </metadata>
 <defs>
  <style type="text/css">*{stroke-linejoin: round; stroke-linecap: butt}</style>
 </defs>
 <g id="figure_1">
  <g id="patch_1">
   <path d="M 0 208.44 
L 416.16 208.44 
L 416.16 0 
L 0 0 
z
" style="fill: #ffffff"/>
  </g>
  <g id="axes_1">
   <g id="patch_2">
    <path d="M 20.85984 82.8756 
L 77.90976 82.8756 
Q 86.74848 82.8756 86.74848 78.60672 
L 86.74848 25.05168 
Q 86.74848 20.7828 77.90976 20.7828 
L 20.85984 20.7828 
Q 12.02112 20.7828 12.02112 25.05168 
L 12.02112 78.60672 
Q 12.02112 82.8756 20.85984 82.8756 
z
" clip-path="url(#p48e36b47be)" style="fill: #dbeafe; stroke: #3b6ea5; stroke-width: 1.3; stroke-linejoin: miter"/>
   </g>
   <g id="patch_3">
    <path d="M 101.21184 82.8756 
L 158.26176 82.8756 
Q 167.10048 82.8756 167.10048 78.60672 
L 167.10048 25.05168 
Q 167.10048 20.7828 158.26176 20.7828 
L 101.21184 20.7828 
Q 92.37312 20.7828 92.37312 25.05168 
L 92.37312 78.60672 
Q 92.37312 82.8756 101.21184 82.8756 
z
" clip-path="url(#p48e36b47be)" style="fill: #e0f2fe; stroke: #2f7fb0; stroke-width: 1.3; stroke-linejoin: miter"/>
   </g>
   <g id="patch_4">
    <path d="M 181.56384 82.8756 
L 238.61376 82.8756 
Q 247.45248 82.8756 247.45248 78.60672 
L 247.45248 25.05168 
Q 247.45248 20.7828 238.61376 20.7828 
L 181.56384 20.7828 
Q 172.72512 20.7828 172.72512 25.05168 
L 172.72512 78.60672 
Q 172.72512 82.8756 181.56384 82.8756 
z
" clip-path="url(#p48e36b47be)" style="fill: #dcfce7; stroke: #3f9d6d; stroke-width: 1.3; stroke-linejoin: miter"/>
   </g>
   <g id="patch_5">
    <path d="M 261.91584 82.8756 
L 318.96576 82.8756 
Q 327.80448 82.8756 327.80448 78.60672 
L 327.80448 25.05168 
Q 327.80448 20.7828 318.96576 20.7828 
L 261.91584 20.7828 
Q 253.07712 20.7828 253.07712 25.05168 
L 253.07712 78.60672 
Q 253.07712 82.8756 261.91584 82.8756 
z
" clip-path="url(#p48e36b47be)" style="fill: #fef3c7; stroke: #cd8b2a; stroke-width: 1.3; stroke-linejoin: miter"/>
   </g>
   <g id="patch_6">
    <path d="M 338.25024 82.8756 
L 395.30016 82.8756 
Q 404.13888 82.8756 404.13888 78.60672 
L 404.13888 25.05168 
Q 404.13888 20.7828 395.30016 20.7828 
L 338.25024 20.7828 
Q 329.41152 20.7828 329.41152 25.05168 
L 329.41152 78.60672 
Q 329.41152 82.8756 338.25024 82.8756 
z
" clip-path="url(#p48e36b47be)" style="fill: #fee2e2; stroke: #c0504d; stroke-width: 1.3; stroke-linejoin: miter"/>
   </g>
   <g id="patch_7">
    <path d="M 64.4508 176.985 
L 186.9876 176.985 
Q 199.0404 176.985 199.0404 171.1638 
L 199.0404 139.1472 
Q 199.0404 133.326 186.9876 133.326 
L 64.4508 133.326 
Q 52.398 133.326 52.398 139.1472 
L 52.398 171.1638 
Q 52.398 176.985 64.4508 176.985 
z
" clip-path="url(#p48e36b47be)" style="fill: #dbeafe; stroke: #3b6ea5; stroke-width: 1.3; stroke-linejoin: miter"/>
   </g>
   <g id="patch_8">
    <path d="M 229.1724 176.985 
L 351.7092 176.985 
Q 363.762 176.985 363.762 171.1638 
L 363.762 139.1472 
Q 363.762 133.326 351.7092 133.326 
L 229.1724 133.326 
Q 217.1196 133.326 217.1196 139.1472 
L 217.1196 171.1638 
Q 217.1196 176.985 229.1724 176.985 
z
" clip-path="url(#p48e36b47be)" style="fill: #fde3d6; stroke: #d26b4f; stroke-width: 1.3; stroke-linejoin: miter"/>
   </g>
   <g id="text_1">
    <text style="font-weight: 700; font-size: 8.4px; font-family: 'DejaVu Sans'; fill: #242a33" transform="translate(25.540613 39.741994)">Fixed SAR</text>
    <text style="font-weight: 700; font-size: 8.4px; font-family: 'DejaVu Sans'; fill: #242a33" transform="translate(15.6063 49.148156)">map decisions</text>
   </g>
   <g id="text_2">
    <text style="font-size: 6.7px; font-family: 'DejaVu Sans'; fill: #3c4654" transform="translate(25.528089 63.897594)">U-Net vs ASPP</text>
    <text style="font-size: 6.7px; font-family: 'DejaVu Sans'; fill: #3c4654" transform="translate(16.623894 71.400128)">(no Kuro retraining)</text>
   </g>
   <g id="patch_9">
    <path d="M 87.139647 51.8292 
Q 89.559545 51.8292 90.190589 51.8292 
" style="fill: none; stroke: #566173; stroke-width: 1.6; stroke-linecap: round"/>
    <path d="M 86.990589 50.2292 
L 90.190589 51.8292 
L 86.990589 53.4292 
z
" style="fill: #566173; stroke: #566173; stroke-width: 1.6; stroke-linecap: round"/>
   </g>
   <g id="text_3">
    <text style="font-weight: 700; font-size: 8.4px; font-family: 'DejaVu Sans'; fill: #242a33" transform="translate(100.390613 39.709181)">Aggregation</text>
    <text style="font-weight: 700; font-size: 8.4px; font-family: 'DejaVu Sans'; fill: #242a33" transform="translate(107.73405 49.180969)">estimand</text>
   </g>
   <g id="text_4">
    <text style="font-size: 6.7px; font-family: 'DejaVu Sans'; fill: #3c4654" transform="translate(107.654542 63.897594)">pooled pixels</text>
    <text style="font-size: 6.7px; font-family: 'DejaVu Sans'; fill: #3c4654" transform="translate(106.10255 71.400128)">vs event units</text>
   </g>
   <g id="patch_10">
    <path d="M 167.491647 51.8292 
Q 169.911545 51.8292 170.542589 51.8292 
" style="fill: none; stroke: #566173; stroke-width: 1.6; stroke-linecap: round"/>
    <path d="M 167.342589 50.2292 
L 170.542589 51.8292 
L 167.342589 53.4292 
z
" style="fill: #566173; stroke: #566173; stroke-width: 1.6; stroke-linecap: round"/>
   </g>
   <g id="text_5">
    <text style="font-weight: 700; font-size: 8.4px; font-family: 'DejaVu Sans'; fill: #242a33" transform="translate(196.635675 39.741994)">Event</text>
    <text style="font-weight: 700; font-size: 8.4px; font-family: 'DejaVu Sans'; fill: #242a33" transform="translate(181.182956 49.148156)">composition</text>
   </g>
   <g id="text_6">
    <text style="font-size: 6.7px; font-family: 'DejaVu Sans'; fill: #3c4654" transform="translate(184.289613 63.897594)">Larkana carries</text>
    <text style="font-size: 6.7px; font-family: 'DejaVu Sans'; fill: #3c4654" transform="translate(179.308581 71.400128)">58.8% flood pixels</text>
   </g>
   <g id="patch_11">
    <path d="M 247.843647 51.8292 
Q 250.263545 51.8292 250.894589 51.8292 
" style="fill: none; stroke: #566173; stroke-width: 1.6; stroke-linecap: round"/>
    <path d="M 247.694589 50.2292 
L 250.894589 51.8292 
L 247.694589 53.4292 
z
" style="fill: #566173; stroke: #566173; stroke-width: 1.6; stroke-linecap: round"/>
   </g>
   <g id="text_7">
    <text style="font-weight: 700; font-size: 8.4px; font-family: 'DejaVu Sans'; fill: #242a33" transform="translate(266.984456 39.741994)">Cost-ratio</text>
    <text style="font-weight: 700; font-size: 8.4px; font-family: 'DejaVu Sans'; fill: #242a33" transform="translate(272.880206 49.148156)">surface</text>
   </g>
   <g id="text_8">
    <!-- $\lambda^{*}=c_{FP}/c_{FN}$ -->
    <g style="fill: #3c4654" transform="translate(271.9488 68.024689)">
     <text>
      <tspan x="0" y="-0.678125" style="font-style: oblique; font-size: 6.7px; font-family: 'DejaVu Sans'; fill: #3c4654">λ</tspan>
      <tspan x="15.354867" y="-0.678125" style="font-style: oblique; font-size: 6.7px; font-family: 'DejaVu Sans'; fill: #3c4654">c</tspan>
      <tspan x="27.098726" y="-0.678125" style="font-style: oblique; font-size: 6.7px; font-family: 'DejaVu Sans'; fill: #3c4654">c</tspan>
      <tspan x="4.515072" y="-3.357812" style="font-size: 4.69px; font-family: 'DejaVu Sans'; fill: #3c4654">*</tspan>
      <tspan x="8.384041" y="-0.678125" style="font-size: 6.7px; font-family: 'DejaVu Sans'; fill: #3c4654">=</tspan>
      <tspan x="24.824556" y="-0.678125" style="font-size: 6.7px; font-family: 'DejaVu Sans'; fill: #3c4654">/</tspan>
      <tspan x="19.066048" y="0.470313" style="font-style: oblique; font-size: 4.69px; font-family: 'DejaVu Sans'; fill: #3c4654">F</tspan>
      <tspan x="21.783846" y="0.470313" style="font-style: oblique; font-size: 4.69px; font-family: 'DejaVu Sans'; fill: #3c4654">P</tspan>
      <tspan x="30.809908" y="0.470313" style="font-style: oblique; font-size: 4.69px; font-family: 'DejaVu Sans'; fill: #3c4654">F</tspan>
      <tspan x="33.527706" y="0.470313" style="font-style: oblique; font-size: 4.69px; font-family: 'DejaVu Sans'; fill: #3c4654">N</tspan>
     </text>
    </g>
   </g>
   <g id="patch_12">
    <path d="M 328.198393 51.8292 
Q 328.607372 51.8292 327.227497 51.8292 
" style="fill: none; stroke: #566173; stroke-width: 1.6; stroke-linecap: round"/>
    <path d="M 324.027497 50.2292 
L 327.227497 51.8292 
L 324.027497 53.4292 
z
" style="fill: #566173; stroke: #566173; stroke-width: 1.6; stroke-linecap: round"/>
   </g>
   <g id="text_9">
    <text style="font-weight: 700; font-size: 8.4px; font-family: 'DejaVu Sans'; fill: #242a33" transform="translate(346.695263 39.741994)">Decision</text>
    <text style="font-weight: 700; font-size: 8.4px; font-family: 'DejaVu Sans'; fill: #242a33" transform="translate(335.888138 49.148156)">consequence</text>
   </g>
   <g id="text_10">
    <text style="font-size: 6.7px; font-family: 'DejaVu Sans'; fill: #3c4654" transform="translate(338.841434 63.897594)">which map wins,</text>
    <text style="font-size: 6.7px; font-family: 'DejaVu Sans'; fill: #3c4654" transform="translate(329.777591 71.400128)">under which objective</text>
   </g>
   <g id="text_11">
    <text style="font-weight: 700; font-size: 8.2px; font-family: 'DejaVu Sans'; text-anchor: middle; fill: #242a33" x="208.08" y="115.182456" transform="rotate(-0 208.08 115.182456)">Same evidence, different selected map when the objective changes:</text>
   </g>
   <g id="text_12">
    <text style="font-weight: 700; font-size: 8px; font-family: 'DejaVu Sans'; text-anchor: middle; fill: #242a33" x="125.7192" y="157.363" transform="rotate(-0 125.7192 157.363)">Pooled-pixel F1   →   U-Net</text>
   </g>
   <g id="text_13">
    <text style="font-weight: 700; font-size: 8px; font-family: 'DejaVu Sans'; text-anchor: middle; fill: #242a33" x="290.4408" y="157.33175" transform="rotate(-0 290.4408 157.33175)">Event reliability / cost ratio   →   ASPP</text>
   </g>
   <g id="patch_13">
    <path d="M 24.07392 32.23116 
C 25.885236 32.23116 27.622609 31.88359 28.903403 31.264999 
C 30.184197 30.646408 30.90384 29.8073 30.90384 28.93248 
C 30.90384 28.05766 30.184197 27.218552 28.903403 26.599961 
C 27.622609 25.98137 25.885236 25.6338 24.07392 25.6338 
C 22.262604 25.6338 20.525231 25.98137 19.244437 26.599961 
C 17.963643 27.218552 17.244 28.05766 17.244 28.93248 
C 17.244 29.8073 17.963643 30.646408 19.244437 31.264999 
C 20.525231 31.88359 22.262604 32.23116 24.07392 32.23116 
z
" clip-path="url(#p48e36b47be)" style="fill: #3b6ea5; stroke: #ffffff; stroke-width: 0.8; stroke-linejoin: miter"/>
   </g>
   <g id="patch_14">
    <path d="M 104.42592 32.23116 
C 106.237236 32.23116 107.974609 31.88359 109.255403 31.264999 
C 110.536197 30.646408 111.25584 29.8073 111.25584 28.93248 
C 111.25584 28.05766 110.536197 27.218552 109.255403 26.599961 
C 107.974609 25.98137 106.237236 25.6338 104.42592 25.6338 
C 102.614604 25.6338 100.877231 25.98137 99.596437 26.599961 
C 98.315643 27.218552 97.596 28.05766 97.596 28.93248 
C 97.596 29.8073 98.315643 30.646408 99.596437 31.264999 
C 100.877231 31.88359 102.614604 32.23116 104.42592 32.23116 
z
" clip-path="url(#p48e36b47be)" style="fill: #2f7fb0; stroke: #ffffff; stroke-width: 0.8; stroke-linejoin: miter"/>
   </g>
   <g id="patch_15">
    <path d="M 184.77792 32.23116 
C 186.589236 32.23116 188.326609 31.88359 189.607403 31.264999 
C 190.888197 30.646408 191.60784 29.8073 191.60784 28.93248 
C 191.60784 28.05766 190.888197 27.218552 189.607403 26.599961 
C 188.326609 25.98137 186.589236 25.6338 184.77792 25.6338 
C 182.966604 25.6338 181.229231 25.98137 179.948437 26.599961 
C 178.667643 27.218552 177.948 28.05766 177.948 28.93248 
C 177.948 29.8073 178.667643 30.646408 179.948437 31.264999 
C 181.229231 31.88359 182.966604 32.23116 184.77792 32.23116 
z
" clip-path="url(#p48e36b47be)" style="fill: #3f9d6d; stroke: #ffffff; stroke-width: 0.8; stroke-linejoin: miter"/>
   </g>
   <g id="patch_16">
    <path d="M 265.12992 32.23116 
C 266.941236 32.23116 268.678609 31.88359 269.959403 31.264999 
C 271.240197 30.646408 271.95984 29.8073 271.95984 28.93248 
C 271.95984 28.05766 271.240197 27.218552 269.959403 26.599961 
C 268.678609 25.98137 266.941236 25.6338 265.12992 25.6338 
C 263.318604 25.6338 261.581231 25.98137 260.300437 26.599961 
C 259.019643 27.218552 258.3 28.05766 258.3 28.93248 
C 258.3 29.8073 259.019643 30.646408 260.300437 31.264999 
C 261.581231 31.88359 263.318604 32.23116 265.12992 32.23116 
z
" clip-path="url(#p48e36b47be)" style="fill: #cd8b2a; stroke: #ffffff; stroke-width: 0.8; stroke-linejoin: miter"/>
   </g>
   <g id="patch_17">
    <path d="M 341.46432 32.23116 
C 343.275636 32.23116 345.013009 31.88359 346.293803 31.264999 
C 347.574597 30.646408 348.29424 29.8073 348.29424 28.93248 
C 348.29424 28.05766 347.574597 27.218552 346.293803 26.599961 
C 345.013009 25.98137 343.275636 25.6338 341.46432 25.6338 
C 339.653004 25.6338 337.915631 25.98137 336.634837 26.599961 
C 335.354043 27.218552 334.6344 28.05766 334.6344 28.93248 
C 334.6344 29.8073 335.354043 30.646408 336.634837 31.264999 
C 337.915631 31.88359 339.653004 32.23116 341.46432 32.23116 
z
" clip-path="url(#p48e36b47be)" style="fill: #c0504d; stroke: #ffffff; stroke-width: 0.8; stroke-linejoin: miter"/>
   </g>
   <g id="text_14">
    <text style="font-weight: 700; font-size: 6.5px; font-family: 'DejaVu Sans'; text-anchor: middle; fill: #ffffff" x="24.07392" y="30.726074" transform="rotate(-0 24.07392 30.726074)">1</text>
   </g>
   <g id="text_15">
    <text style="font-weight: 700; font-size: 6.5px; font-family: 'DejaVu Sans'; text-anchor: middle; fill: #ffffff" x="104.42592" y="30.726074" transform="rotate(-0 104.42592 30.726074)">2</text>
   </g>
   <g id="text_16">
    <text style="font-weight: 700; font-size: 6.5px; font-family: 'DejaVu Sans'; text-anchor: middle; fill: #ffffff" x="184.77792" y="30.726074" transform="rotate(-0 184.77792 30.726074)">3</text>
   </g>
   <g id="text_17">
    <text style="font-weight: 700; font-size: 6.5px; font-family: 'DejaVu Sans'; text-anchor: middle; fill: #ffffff" x="265.12992" y="30.726074" transform="rotate(-0 265.12992 30.726074)">4</text>
   </g>
   <g id="text_18">
    <text style="font-weight: 700; font-size: 6.5px; font-family: 'DejaVu Sans'; text-anchor: middle; fill: #ffffff" x="341.46432" y="30.726074" transform="rotate(-0 341.46432 30.726074)">5</text>
   </g>
  </g>
 </g>
 <defs>
  <clipPath id="p48e36b47be">
   <rect x="7.2" y="7.2" width="401.76" height="194.04"/>
  </clipPath>
 </defs>
</svg>
